<svg width="25" height="25" viewBox="0 0 25 25" fill="none" xmlns="http://www.w3.org/2000/svg">
<path d="M22.1482 21.5677H19.8982V3.56775H20.6482C20.8471 3.56775 21.0379 3.48873 21.1786 3.34808C21.3192 3.20743 21.3982 3.01666 21.3982 2.81775C21.3982 2.61884 21.3192 2.42807 21.1786 2.28742C21.0379 2.14677 20.8471 2.06775 20.6482 2.06775H4.14822C3.94931 2.06775 3.75855 2.14677 3.61789 2.28742C3.47724 2.42807 3.39822 2.61884 3.39822 2.81775C3.39822 3.01666 3.47724 3.20743 3.61789 3.34808C3.75855 3.48873 3.94931 3.56775 4.14822 3.56775H4.89822V21.5677H2.64822C2.44931 21.5677 2.25855 21.6468 2.11789 21.7874C1.97724 21.9281 1.89822 22.1188 1.89822 22.3177C1.89822 22.5167 1.97724 22.7074 2.11789 22.8481C2.25855 22.9887 2.44931 23.0677 2.64822 23.0677H22.1482C22.3471 23.0677 22.5379 22.9887 22.6786 22.8481C22.8192 22.7074 22.8982 22.5167 22.8982 22.3177C22.8982 22.1188 22.8192 21.9281 22.6786 21.7874C22.5379 21.6468 22.3471 21.5677 22.1482 21.5677ZM6.39822 3.56775H18.3982V21.5677H15.3982V17.8177C15.3982 17.6188 15.3192 17.4281 15.1786 17.2874C15.0379 17.1468 14.8471 17.0677 14.6482 17.0677H10.1482C9.94931 17.0677 9.75855 17.1468 9.61789 17.2874C9.47724 17.4281 9.39822 17.6188 9.39822 17.8177V21.5677H6.39822V3.56775ZM13.8982 21.5677H10.8982V18.5677H13.8982V21.5677ZM8.64822 6.56775C8.64822 6.36884 8.72724 6.17807 8.86789 6.03742C9.00855 5.89677 9.19931 5.81775 9.39822 5.81775H10.8982C11.0971 5.81775 11.2879 5.89677 11.4286 6.03742C11.5692 6.17807 11.6482 6.36884 11.6482 6.56775C11.6482 6.76666 11.5692 6.95743 11.4286 7.09808C11.2879 7.23873 11.0971 7.31775 10.8982 7.31775H9.39822C9.19931 7.31775 9.00855 7.23873 8.86789 7.09808C8.72724 6.95743 8.64822 6.76666 8.64822 6.56775ZM13.1482 6.56775C13.1482 6.36884 13.2272 6.17807 13.3679 6.03742C13.5085 5.89677 13.6993 5.81775 13.8982 5.81775H15.3982C15.5971 5.81775 15.7879 5.89677 15.9286 6.03742C16.0692 6.17807 16.1482 6.36884 16.1482 6.56775C16.1482 6.76666 16.0692 6.95743 15.9286 7.09808C15.7879 7.23873 15.5971 7.31775 15.3982 7.31775H13.8982C13.6993 7.31775 13.5085 7.23873 13.3679 7.09808C13.2272 6.95743 13.1482 6.76666 13.1482 6.56775ZM8.64822 10.3177C8.64822 10.1188 8.72724 9.92807 8.86789 9.78742C9.00855 9.64677 9.19931 9.56775 9.39822 9.56775H10.8982C11.0971 9.56775 11.2879 9.64677 11.4286 9.78742C11.5692 9.92807 11.6482 10.1188 11.6482 10.3177C11.6482 10.5167 11.5692 10.7074 11.4286 10.8481C11.2879 10.9887 11.0971 11.0677 10.8982 11.0677H9.39822C9.19931 11.0677 9.00855 10.9887 8.86789 10.8481C8.72724 10.7074 8.64822 10.5167 8.64822 10.3177ZM13.1482 10.3177C13.1482 10.1188 13.2272 9.92807 13.3679 9.78742C13.5085 9.64677 13.6993 9.56775 13.8982 9.56775H15.3982C15.5971 9.56775 15.7879 9.64677 15.9286 9.78742C16.0692 9.92807 16.1482 10.1188 16.1482 10.3177C16.1482 10.5167 16.0692 10.7074 15.9286 10.8481C15.7879 10.9887 15.5971 11.0677 15.3982 11.0677H13.8982C13.6993 11.0677 13.5085 10.9887 13.3679 10.8481C13.2272 10.7074 13.1482 10.5167 13.1482 10.3177ZM8.64822 14.0677C8.64822 13.8688 8.72724 13.6781 8.86789 13.5374C9.00855 13.3968 9.19931 13.3177 9.39822 13.3177H10.8982C11.0971 13.3177 11.2879 13.3968 11.4286 13.5374C11.5692 13.6781 11.6482 13.8688 11.6482 14.0677C11.6482 14.2667 11.5692 14.4574 11.4286 14.5981C11.2879 14.7387 11.0971 14.8177 10.8982 14.8177H9.39822C9.19931 14.8177 9.00855 14.7387 8.86789 14.5981C8.72724 14.4574 8.64822 14.2667 8.64822 14.0677ZM13.1482 14.0677C13.1482 13.8688 13.2272 13.6781 13.3679 13.5374C13.5085 13.3968 13.6993 13.3177 13.8982 13.3177H15.3982C15.5971 13.3177 15.7879 13.3968 15.9286 13.5374C16.0692 13.6781 16.1482 13.8688 16.1482 14.0677C16.1482 14.2667 16.0692 14.4574 15.9286 14.5981C15.7879 14.7387 15.5971 14.8177 15.3982 14.8177H13.8982C13.6993 14.8177 13.5085 14.7387 13.3679 14.5981C13.2272 14.4574 13.1482 14.2667 13.1482 14.0677Z" fill="black"/>
</svg>
